<mxfile host="65bd71144e" pages="2">
    <diagram id="_V6gmOASPIxU8j8_DKH9" name="Page-1">
        <mxGraphModel dx="675" dy="731" grid="1" gridSize="10" guides="1" tooltips="1" connect="1" arrows="1" fold="1" page="1" pageScale="1" pageWidth="827" pageHeight="1169" math="0" shadow="0">
            <root>
                <mxCell id="0"/>
                <mxCell id="1" parent="0"/>
                <mxCell id="ghEgBFMkwtecUuK6ZeqX-6" value="Open token&lt;br&gt;bookings" style="edgeStyle=orthogonalEdgeStyle;rounded=0;orthogonalLoop=1;jettySize=auto;html=1;entryX=1;entryY=0.75;entryDx=0;entryDy=0;exitX=0.281;exitY=0.088;exitDx=0;exitDy=0;exitPerimeter=0;" parent="1" source="ghEgBFMkwtecUuK6ZeqX-1" target="ghEgBFMkwtecUuK6ZeqX-3" edge="1">
                    <mxGeometry x="-0.133" relative="1" as="geometry">
                        <mxPoint x="320" y="520" as="sourcePoint"/>
                        <Array as="points">
                            <mxPoint x="270" y="567"/>
                            <mxPoint x="270" y="425"/>
                        </Array>
                        <mxPoint as="offset"/>
                    </mxGeometry>
                </mxCell>
                <mxCell id="ghEgBFMkwtecUuK6ZeqX-12" style="edgeStyle=orthogonalEdgeStyle;rounded=0;orthogonalLoop=1;jettySize=auto;html=1;exitX=0.5;exitY=0;exitDx=0;exitDy=0;entryX=1.029;entryY=0.508;entryDx=0;entryDy=0;entryPerimeter=0;" parent="1" source="ghEgBFMkwtecUuK6ZeqX-1" target="ghEgBFMkwtecUuK6ZeqX-3" edge="1">
                    <mxGeometry relative="1" as="geometry">
                        <Array as="points">
                            <mxPoint x="290" y="410"/>
                            <mxPoint x="204" y="410"/>
                        </Array>
                    </mxGeometry>
                </mxCell>
                <mxCell id="ghEgBFMkwtecUuK6ZeqX-13" value="Generate&lt;br&gt;invoice" style="edgeLabel;html=1;align=center;verticalAlign=middle;resizable=0;points=[];" parent="ghEgBFMkwtecUuK6ZeqX-12" vertex="1" connectable="0">
                    <mxGeometry x="0.1608" y="-2" relative="1" as="geometry">
                        <mxPoint x="-2" y="18" as="offset"/>
                    </mxGeometry>
                </mxCell>
                <mxCell id="ghEgBFMkwtecUuK6ZeqX-16" value="Inventoiry Update" style="edgeStyle=orthogonalEdgeStyle;rounded=0;orthogonalLoop=1;jettySize=auto;html=1;exitX=1.019;exitY=0.306;exitDx=0;exitDy=0;entryX=-0.025;entryY=0.242;entryDx=0;entryDy=0;entryPerimeter=0;exitPerimeter=0;" parent="1" source="ghEgBFMkwtecUuK6ZeqX-1" target="ghEgBFMkwtecUuK6ZeqX-14" edge="1">
                    <mxGeometry relative="1" as="geometry"/>
                </mxCell>
                <mxCell id="ghEgBFMkwtecUuK6ZeqX-17" value="Sales report generate" style="edgeStyle=orthogonalEdgeStyle;rounded=0;orthogonalLoop=1;jettySize=auto;html=1;exitX=0.994;exitY=0.675;exitDx=0;exitDy=0;entryX=0;entryY=0.75;entryDx=0;entryDy=0;exitPerimeter=0;" parent="1" source="ghEgBFMkwtecUuK6ZeqX-1" target="ghEgBFMkwtecUuK6ZeqX-14" edge="1">
                    <mxGeometry relative="1" as="geometry"/>
                </mxCell>
                <mxCell id="ghEgBFMkwtecUuK6ZeqX-18" style="edgeStyle=orthogonalEdgeStyle;rounded=0;orthogonalLoop=1;jettySize=auto;html=1;exitX=1;exitY=0;exitDx=0;exitDy=0;entryX=0.975;entryY=0.3;entryDx=0;entryDy=0;entryPerimeter=0;" parent="1" source="ghEgBFMkwtecUuK6ZeqX-1" target="ghEgBFMkwtecUuK6ZeqX-3" edge="1">
                    <mxGeometry relative="1" as="geometry">
                        <mxPoint x="240" y="340" as="targetPoint"/>
                        <Array as="points">
                            <mxPoint x="320" y="572"/>
                            <mxPoint x="320" y="400"/>
                            <mxPoint x="204" y="400"/>
                            <mxPoint x="204" y="398"/>
                        </Array>
                    </mxGeometry>
                </mxCell>
                <mxCell id="ghEgBFMkwtecUuK6ZeqX-19" value="Notify if token&lt;br&gt;almost finish" style="edgeLabel;html=1;align=center;verticalAlign=middle;resizable=0;points=[];" parent="ghEgBFMkwtecUuK6ZeqX-18" vertex="1" connectable="0">
                    <mxGeometry x="-0.5053" y="-2" relative="1" as="geometry">
                        <mxPoint x="28" as="offset"/>
                    </mxGeometry>
                </mxCell>
                <mxCell id="ghEgBFMkwtecUuK6ZeqX-20" value="&lt;font color=&quot;#fafafa&quot;&gt;Check info (In daily, weekly, monthly and yearly&lt;/font&gt;" style="edgeStyle=orthogonalEdgeStyle;rounded=0;orthogonalLoop=1;jettySize=auto;html=1;exitX=1;exitY=1;exitDx=0;exitDy=0;entryX=0.625;entryY=1.042;entryDx=0;entryDy=0;entryPerimeter=0;fontColor=none;" parent="1" source="ghEgBFMkwtecUuK6ZeqX-1" target="ghEgBFMkwtecUuK6ZeqX-14" edge="1">
                    <mxGeometry relative="1" as="geometry">
                        <Array as="points">
                            <mxPoint x="318" y="690"/>
                            <mxPoint x="545" y="690"/>
                        </Array>
                    </mxGeometry>
                </mxCell>
                <mxCell id="ghEgBFMkwtecUuK6ZeqX-1" value="System" style="ellipse;whiteSpace=wrap;html=1;aspect=fixed;" parent="1" vertex="1">
                    <mxGeometry x="250" y="560" width="80" height="80" as="geometry"/>
                </mxCell>
                <mxCell id="ghEgBFMkwtecUuK6ZeqX-7" value="Select seat" style="edgeStyle=orthogonalEdgeStyle;rounded=0;orthogonalLoop=1;jettySize=auto;html=1;exitX=0.821;exitY=1.058;exitDx=0;exitDy=0;exitPerimeter=0;" parent="1" source="ghEgBFMkwtecUuK6ZeqX-3" edge="1">
                    <mxGeometry relative="1" as="geometry">
                        <mxPoint x="250" y="590" as="targetPoint"/>
                        <Array as="points">
                            <mxPoint x="180" y="444"/>
                            <mxPoint x="180" y="590"/>
                            <mxPoint x="250" y="590"/>
                        </Array>
                    </mxGeometry>
                </mxCell>
                <mxCell id="ghEgBFMkwtecUuK6ZeqX-8" style="edgeStyle=orthogonalEdgeStyle;rounded=0;orthogonalLoop=1;jettySize=auto;html=1;exitX=0.5;exitY=1;exitDx=0;exitDy=0;entryX=-0.025;entryY=0.619;entryDx=0;entryDy=0;entryPerimeter=0;" parent="1" source="ghEgBFMkwtecUuK6ZeqX-3" target="ghEgBFMkwtecUuK6ZeqX-1" edge="1">
                    <mxGeometry relative="1" as="geometry">
                        <Array as="points">
                            <mxPoint x="140" y="610"/>
                            <mxPoint x="248" y="610"/>
                        </Array>
                    </mxGeometry>
                </mxCell>
                <mxCell id="ghEgBFMkwtecUuK6ZeqX-9" value="View Details" style="edgeLabel;html=1;align=center;verticalAlign=middle;resizable=0;points=[];" parent="ghEgBFMkwtecUuK6ZeqX-8" vertex="1" connectable="0">
                    <mxGeometry x="-0.1974" relative="1" as="geometry">
                        <mxPoint y="33" as="offset"/>
                    </mxGeometry>
                </mxCell>
                <mxCell id="ghEgBFMkwtecUuK6ZeqX-10" style="edgeStyle=orthogonalEdgeStyle;rounded=0;orthogonalLoop=1;jettySize=auto;html=1;exitX=0.163;exitY=0.967;exitDx=0;exitDy=0;entryX=0.106;entryY=0.875;entryDx=0;entryDy=0;entryPerimeter=0;exitPerimeter=0;" parent="1" source="ghEgBFMkwtecUuK6ZeqX-3" target="ghEgBFMkwtecUuK6ZeqX-1" edge="1">
                    <mxGeometry relative="1" as="geometry">
                        <Array as="points">
                            <mxPoint x="100" y="630"/>
                        </Array>
                    </mxGeometry>
                </mxCell>
                <mxCell id="ghEgBFMkwtecUuK6ZeqX-11" value="Make booking" style="edgeLabel;html=1;align=center;verticalAlign=middle;resizable=0;points=[];" parent="ghEgBFMkwtecUuK6ZeqX-10" vertex="1" connectable="0">
                    <mxGeometry x="-0.3734" y="-4" relative="1" as="geometry">
                        <mxPoint x="-6" y="48" as="offset"/>
                    </mxGeometry>
                </mxCell>
                <mxCell id="ghEgBFMkwtecUuK6ZeqX-3" value="Prospective audiences" style="rounded=0;whiteSpace=wrap;html=1;" parent="1" vertex="1">
                    <mxGeometry x="80" y="380" width="120" height="60" as="geometry"/>
                </mxCell>
                <mxCell id="ghEgBFMkwtecUuK6ZeqX-5" value="Confitm concert" style="edgeStyle=orthogonalEdgeStyle;rounded=0;orthogonalLoop=1;jettySize=auto;html=1;exitX=1;exitY=0.5;exitDx=0;exitDy=0;entryX=0.569;entryY=1.031;entryDx=0;entryDy=0;entryPerimeter=0;" parent="1" source="ghEgBFMkwtecUuK6ZeqX-4" target="ghEgBFMkwtecUuK6ZeqX-1" edge="1">
                    <mxGeometry relative="1" as="geometry"/>
                </mxCell>
                <mxCell id="ghEgBFMkwtecUuK6ZeqX-4" value="Artist" style="rounded=0;whiteSpace=wrap;html=1;" parent="1" vertex="1">
                    <mxGeometry x="80" y="740" width="120" height="60" as="geometry"/>
                </mxCell>
                <mxCell id="ghEgBFMkwtecUuK6ZeqX-14" value="Admin" style="rounded=0;whiteSpace=wrap;html=1;" parent="1" vertex="1">
                    <mxGeometry x="470" y="570" width="120" height="60" as="geometry"/>
                </mxCell>
            </root>
        </mxGraphModel>
    </diagram>
    <diagram id="vfTUrWZkI04EZHM0f2_K" name="Page-2">
        <mxGraphModel dx="675" dy="731" grid="1" gridSize="10" guides="1" tooltips="1" connect="1" arrows="1" fold="1" page="1" pageScale="1" pageWidth="827" pageHeight="1169" math="0" shadow="0">
            <root>
                <mxCell id="0"/>
                <mxCell id="1" parent="0"/>
                <mxCell id="38inFAKSyEvDtv_DGyfb-5" value="" style="rounded=0;whiteSpace=wrap;html=1;" parent="1" vertex="1">
                    <mxGeometry x="50" y="480" width="520" height="190" as="geometry"/>
                </mxCell>
                <mxCell id="38inFAKSyEvDtv_DGyfb-6" value="" style="rounded=0;whiteSpace=wrap;html=1;" parent="1" vertex="1">
                    <mxGeometry x="50" y="750" width="520" height="190" as="geometry"/>
                </mxCell>
                <mxCell id="38inFAKSyEvDtv_DGyfb-7" value="" style="group" parent="1" vertex="1" connectable="0">
                    <mxGeometry x="70" y="65" width="520" height="290" as="geometry"/>
                </mxCell>
                <mxCell id="38inFAKSyEvDtv_DGyfb-4" value="" style="rounded=0;whiteSpace=wrap;html=1;" parent="38inFAKSyEvDtv_DGyfb-7" vertex="1">
                    <mxGeometry width="520" height="290" as="geometry"/>
                </mxCell>
                <mxCell id="38inFAKSyEvDtv_DGyfb-1" value="Coach" style="rounded=0;whiteSpace=wrap;html=1;" parent="38inFAKSyEvDtv_DGyfb-7" vertex="1">
                    <mxGeometry x="70" y="90" width="120" height="60" as="geometry"/>
                </mxCell>
                <mxCell id="38inFAKSyEvDtv_DGyfb-2" value="Tite, Date" style="rounded=0;whiteSpace=wrap;html=1;" parent="38inFAKSyEvDtv_DGyfb-7" vertex="1">
                    <mxGeometry x="310" y="90" width="120" height="60" as="geometry"/>
                </mxCell>
                <mxCell id="38inFAKSyEvDtv_DGyfb-3" value="Student" style="rounded=0;whiteSpace=wrap;html=1;" parent="38inFAKSyEvDtv_DGyfb-7" vertex="1">
                    <mxGeometry x="190" y="90" width="120" height="60" as="geometry"/>
                </mxCell>
                <mxCell id="38inFAKSyEvDtv_DGyfb-8" value="Coach Student Table" style="text;html=1;resizable=0;autosize=1;align=center;verticalAlign=middle;points=[];fillColor=none;strokeColor=none;rounded=0;" parent="1" vertex="1">
                    <mxGeometry x="70" y="30" width="130" height="30" as="geometry"/>
                </mxCell>
                <mxCell id="38inFAKSyEvDtv_DGyfb-9" value="Coach Table" style="text;html=1;resizable=0;autosize=1;align=center;verticalAlign=middle;points=[];fillColor=none;strokeColor=none;rounded=0;" parent="1" vertex="1">
                    <mxGeometry x="65" y="440" width="90" height="30" as="geometry"/>
                </mxCell>
                <mxCell id="38inFAKSyEvDtv_DGyfb-10" value="Student Table" style="text;html=1;resizable=0;autosize=1;align=center;verticalAlign=middle;points=[];fillColor=none;strokeColor=none;rounded=0;" parent="1" vertex="1">
                    <mxGeometry x="70" y="710" width="100" height="30" as="geometry"/>
                </mxCell>
                <mxCell id="38inFAKSyEvDtv_DGyfb-11" value="When user login as coach, then retrieve student and title,date column&lt;br&gt;and add these events to calendar" style="text;html=1;resizable=0;autosize=1;align=center;verticalAlign=middle;points=[];fillColor=none;strokeColor=none;rounded=0;" parent="1" vertex="1">
                    <mxGeometry x="115" y="365" width="390" height="40" as="geometry"/>
                </mxCell>
            </root>
        </mxGraphModel>
    </diagram>
</mxfile>